<?xml version="1.0" encoding="utf-8"?><svg xmlns="http://www.w3.org/2000/svg" version="1.1" baseProfile="tiny" width="1200" height="800" viewBox="0 0 1200 800"><g><g stroke="#000000" stroke-width=".98" fill="none"><path d="m527.25 139.27l261.13 1.69 35.84 3.94 27.27 11.95 24.34 24.23 14.32 22.88 7.21 26.37 0 29.53-6.2 28.62-19.61 22.88-19.61 18.94-26.82 9.24-14.31 1.35-143.92-3.61-24.91 8.57-14.76 13.3-11.05 14.87-4.73 18.94-.45 159.35 6.65 19.16 10.48 14.09 13.41 12.28 23.44 11.5 21.08 4.4 24.79 1.35 18.26-1.35 29.64-14.99 164.88-106.05 67.17-63.23 14.87-14.09 2.37-11.49-.45-174.12 8.56-18.04 24.35-11.38 31.55-3.15 37.31 14.2 24.45 8 25.81 1.69 20.51-14.99 14.88-27.27-1.01-27.73-16.23-23.78-22.99-17.13-20.06-7.55-189.34-36.51-519.66-8.79-327.96 8.79-31.1 10.14-25.81 15.89-18.15 21.53-10.59 24.68-7.1 25.02.45 21.18 2.37 24.69 4.28 21.97 11.5 20.29 15.77 20.62 20.06 17.58 23.45 14.54 34.93 10.14 44.97 9.7 34.82 9.24 11.5 10.82 13.41 19.38 2.14 17.02-2.93 21.52-29.64 148.43-1.35 15.33.45 19.38 4.28 14.54 8.12 16.68 10.03 14.09 12.51 9.24 136.93 96.81 16.23 5.63 17.69.45 21.08-4.84 17.69-10.48 17.24-19.84 5.19-17.13 5.74-338.32-7.1-16.23-12.51-11.05-19.04-9.69-301.92-66.38-17.25-13.64-10.48-18.48-4.39-19.38 7.21-21.53 10.03-16.79 17.69-13.19 26.26-7.44 374.84 1.02z" /></g></g></svg>