<?xml version="1.0" encoding="utf-8" standalone="no"?>
<!DOCTYPE svg PUBLIC "-//W3C//DTD SVG 1.1//EN"
  "http://www.w3.org/Graphics/SVG/1.1/DTD/svg11.dtd">
<svg xmlns:xlink="http://www.w3.org/1999/xlink" width="288pt" height="558.477717pt" viewBox="0 0 288 558.477717" xmlns="http://www.w3.org/2000/svg" version="1.1">
 <metadata>
  <rdf:RDF xmlns:dc="http://purl.org/dc/elements/1.1/" xmlns:cc="http://creativecommons.org/ns#" xmlns:rdf="http://www.w3.org/1999/02/22-rdf-syntax-ns#">
   <cc:Work>
    <dc:type rdf:resource="http://purl.org/dc/dcmitype/StillImage"/>
    <dc:date>2025-03-31T21:20:52.531411</dc:date>
    <dc:format>image/svg+xml</dc:format>
    <dc:creator>
     <cc:Agent>
      <dc:title>Matplotlib v3.7.1, https://matplotlib.org/</dc:title>
     </cc:Agent>
    </dc:creator>
   </cc:Work>
  </rdf:RDF>
 </metadata>
 <defs>
  <style type="text/css">*{stroke-linejoin: round; stroke-linecap: butt}</style>
 </defs>
 <g id="figure_1">
  <g id="patch_1">
   <path d="M 0 558.477717 
L 288 558.477717 
L 288 0 
L 0 0 
z
" style="fill: #ffffff"/>
  </g>
  <g id="axes_1">
   <g id="patch_2">
    <path d="M 0 558.477717 
L 288 558.477717 
L 288 0 
L 0 0 
z
" style="fill: #212830"/>
   </g>
   <g id="patch_3">
    <path d="M 140.755133 309.819274 
L 218.33696 300.248555 
L 222.434015 299.00305 
L 225.515 296.085947 
L 227.645468 292.054445 
L 228.038785 288.05572 
L 226.89161 283.860336 
L 214.46934 235.810079 
L 212.338872 230.565849 
L 209.421769 226.698229 
L 204.570856 222.994492 
L 200.506578 221.159011 
L 178.513589 214.931488 
L 171.204443 211.555515 
L 165.763554 208.179542 
L 160.847089 203.951382 
L 157.143351 199.985433 
L 154.390131 196.675013 
L 151.046934 189.398643 
L 149.834206 183.859426 
L 149.735877 177.828561 
L 151.07971 170.683298 
L 153.57072 163.177494 
L 159.044385 144.068831 
L 160.978195 129.90941 
L 161.174853 119.847043 
L 160.19156 111.128511 
L 154.127919 66.290345 
L 150.096417 38.037056 
L 149.309783 34.759412 
L 148.555925 32.10452 
L 146.228798 29.384076 
L 142.262849 26.40142 
L 139.870169 25.647562 
L 137.116948 25.385351 
L 134.494833 25.778668 
L 131.67606 26.794738 
L 129.578368 28.728547 
L 128.300086 30.531251 
L 126.694041 33.546684 
L 121.875905 46.591706 
L 117.287204 65.470934 
L 63.337188 211.555515 
L 54.94642 234.302363 
L 48.653344 251.936086 
L 42.098056 273.830746 
L 28.233623 314.145764 
L 15.024719 350.462057 
L 13.484226 354.001912 
L 13.090909 356.656803 
L 13.484226 358.197296 
L 14.959166 359.737789 
L 18.302363 359.836118 
L 30.65908 358.492284 
L 33.379524 358.492284 
L 35.575545 360.884964 
L 42.589703 385.139527 
L 44.031866 389.695452 
L 48.456685 399.757819 
L 52.488187 406.968635 
L 61.173943 418.473164 
L 71.072427 428.961624 
L 83.527473 438.696226 
L 136.330314 476.618564 
L 148.359266 485.500979 
L 157.831657 491.662949 
L 170.483361 499.1032 
L 181.332362 504.8063 
L 198.867756 512.508763 
L 214.895434 519.064051 
L 238.723904 529.323076 
L 248.917376 533.059589 
L 254.653253 533.092366 
L 260.716894 531.977967 
L 266.256111 529.060864 
L 269.205991 526.471525 
L 271.172577 523.914963 
L 273.139163 520.145673 
L 274.253562 516.474712 
L 274.909091 513.065963 
L 274.384668 507.428415 
L 273.139163 503.331361 
L 271.369236 499.365412 
L 268.779897 495.825557 
L 265.108936 492.613466 
L 260.553011 489.827468 
L 255.734875 487.893659 
L 248.720717 486.975918 
L 193.13188 482.91164 
L 186.281604 482.092229 
L 183.331725 481.502253 
L 180.217963 480.486184 
L 150.358629 463.507989 
L 147.343197 461.443074 
L 145.311057 459.08317 
L 143.147813 454.035599 
L 136.199208 424.438476 
L 136.658078 422.111349 
L 138.264123 420.53808 
L 140.68958 419.915328 
L 165.468566 416.539354 
L 168.385669 415.424956 
L 170.253926 414.539992 
L 172.220513 412.704511 
L 174.187099 409.328538 
L 174.645969 405.165931 
L 174.711522 384.680657 
L 172.908818 381.173579 
L 170.68002 379.075887 
L 167.304047 377.895935 
L 162.682569 376.978195 
L 158.651068 376.486548 
L 153.275732 376.322666 
L 147.965949 376.683207 
L 96.244731 383.926799 
L 91.787135 384.221787 
L 86.116812 384.025129 
L 80.577594 383.140165 
L 76.775527 381.992989 
L 74.251741 379.895297 
L 71.629626 377.338735 
L 57.437429 353.870806 
L 50.095507 343.087358 
L 48.555014 339.908044 
L 47.473392 335.679883 
L 47.112851 332.074475 
L 47.047298 327.747986 
L 47.833933 324.798106 
L 49.734966 322.667638 
L 52.09487 321.586015 
L 57.502982 320.701052 
L 140.755133 309.819274 
L 140.755133 309.819274 
" clip-path="url(#p8337d06327)" style="fill: none; stroke: #ffffff; stroke-width: 0.72; stroke-linejoin: miter"/>
   </g>
  </g>
 </g>
 <defs>
  <clipPath id="p8337d06327">
   <rect x="0" y="0" width="288" height="558.477717"/>
  </clipPath>
 </defs>
</svg>
